<svg width="103" height="15" viewBox="0 0 103 15" fill="none" xmlns="http://www.w3.org/2000/svg">
<path d="M78.271 0.246582C79.0932 0.246582 79.7598 0.913161 79.7598 1.73535V8.17676C79.7598 9.54613 80.0406 10.5322 80.6021 11.1348C81.1636 11.7374 81.9513 12.0391 82.9648 12.0391C83.9783 12.0391 84.7656 11.7374 85.3271 11.1348C85.8887 10.5322 86.1699 9.54626 86.1699 8.17676V1.73535C86.1699 0.913231 86.8361 0.246696 87.6582 0.246582H89.4565V8.2998C89.4565 10.409 88.8814 12.0322 87.731 13.1689C86.5805 14.3056 84.9849 14.874 82.9443 14.874C80.9037 14.874 79.3082 14.3056 78.1577 13.1689C77.0072 12.0322 76.4316 10.409 76.4316 8.2998V0.246582H78.271Z" fill="white"/>
<path d="M97.3682 0C98.2721 0 99.1625 0.109493 100.039 0.328613C100.916 0.534055 101.69 0.849346 102.361 1.27393L101.974 2.22461C101.635 3.05896 100.64 3.38569 99.7866 3.09863C99.6312 3.04637 99.4757 2.99974 99.3203 2.9585C98.6492 2.76675 97.9914 2.6709 97.3477 2.6709C96.7041 2.67091 96.1769 2.74589 95.7661 2.89648C95.3552 3.04714 95.0604 3.24615 94.8823 3.49268C94.7044 3.72546 94.6157 3.99954 94.6157 4.31445C94.6158 4.68416 94.7661 4.98547 95.0674 5.21826C95.3687 5.43737 95.7658 5.61549 96.2588 5.75244C96.7518 5.88939 97.293 6.02614 97.8818 6.16309C98.4845 6.30005 99.0805 6.45769 99.6694 6.63574C100.272 6.81379 100.82 7.05368 101.313 7.35498C101.806 7.65628 102.203 8.05338 102.504 8.54639C102.819 9.03945 102.977 9.66273 102.977 10.416C102.977 11.224 102.751 11.9637 102.299 12.6348C101.847 13.3058 101.169 13.847 100.265 14.2578C99.3749 14.6687 98.245 14.874 96.8755 14.874C95.725 14.874 94.6224 14.7232 93.5679 14.4219C92.5134 14.1069 91.6642 13.703 91.0205 13.21L91.4058 12.3545C91.7911 11.4996 92.8701 11.2097 93.7363 11.5688C93.9269 11.6479 94.1241 11.7224 94.3276 11.7925C95.1768 12.0664 96.0331 12.2031 96.896 12.2031C97.5534 12.2031 98.0809 12.1418 98.478 12.0186C98.8888 11.8816 99.1901 11.6966 99.3818 11.4639C99.5735 11.2311 99.6694 10.9638 99.6694 10.6626C99.6694 10.2791 99.5186 9.97744 99.2173 9.7583C98.916 9.52552 98.5189 9.34055 98.0259 9.20361C97.5328 9.05296 96.9849 8.91623 96.3823 8.79297C95.7934 8.65601 95.1974 8.49155 94.5947 8.2998C94.0059 8.10808 93.4651 7.86132 92.9722 7.56006C92.4791 7.25874 92.0748 6.86171 91.7598 6.36865C91.4585 5.8756 91.3081 5.24546 91.3081 4.47852C91.3081 3.65679 91.5271 2.91034 91.9653 2.23926C92.4173 1.55449 93.0883 1.01338 93.9785 0.616211C94.8824 0.205353 96.0124 2.45738e-05 97.3682 0Z" fill="white"/>
<path d="M10.8677 0.535156C10.8677 1.85066 9.80134 2.91699 8.48584 2.91699H3.32812V6.71777H9.98438V7.00684C9.98436 8.32233 8.91804 9.38867 7.60254 9.38867H3.32812V12.2456C3.32806 13.561 2.26169 14.6274 0.946289 14.6274H0V0.246582H10.8677V0.535156Z" fill="white"/>
<path d="M14.9253 0.246582C15.6979 0.246599 16.4226 0.62143 16.8691 1.25195L19.4541 4.90186L21.9795 1.26904C22.4247 0.628581 23.1555 0.246582 23.9355 0.246582H26.3062L21.2905 7.19092L26.6553 14.6274H24.0601C23.2793 14.6274 22.548 14.2446 22.103 13.603L19.3472 9.62939L16.6406 13.5894C16.1967 14.2388 15.4605 14.6274 14.6738 14.6274H12.1099L17.4209 7.30469L12.377 0.246582H14.9253Z" fill="white"/>
<path d="M34.0762 0.246582C34.7899 0.246582 35.466 0.566645 35.9185 1.11865L42.353 8.9707V0.246582H45.6401V14.6274H44.0337C43.3209 14.6274 42.6458 14.3081 42.1934 13.7573L35.7378 5.89893V14.6274H32.4512V0.246582H34.0762Z" fill="white"/>
<path d="M59.3149 0.535156C59.3149 1.85066 58.2486 2.91699 56.9331 2.91699H51.7549V6.04004H58.4316V6.24658C58.4316 7.56203 57.3653 8.62842 56.0498 8.62842H51.7549V11.9565H59.5825V12.2456C59.5825 13.5611 58.5157 14.6274 57.2002 14.6274H48.4473V0.246582H59.3149V0.535156Z" fill="white"/>
<path d="M63.5596 0.246582C64.3322 0.246619 65.0569 0.621447 65.5034 1.25195L68.0884 4.90186L70.6138 1.26904C71.059 0.628581 71.7898 0.246582 72.5698 0.246582H74.9399L69.9248 7.19092L75.2896 14.6274H72.6943C71.9135 14.6274 71.1823 14.2446 70.7373 13.603L67.9814 9.62939L65.2749 13.5894C64.831 14.2388 64.0948 14.6274 63.3081 14.6274H60.7441L66.0552 7.30469L61.0112 0.246582H63.5596Z" fill="white"/>
</svg>
