<svg width="34" height="20" viewBox="0 0 34 20" fill="none" xmlns="http://www.w3.org/2000/svg">
<path d="M6.46801 4.13228C7.56625 1.62203 10.0464 -7.03401e-08 12.7863 -7.03401e-08L18.3908 -7.03399e-08L17.1002 4.13C16.5004 6.04943 14.7228 7.35632 12.7118 7.35632L5.0575 7.35632L6.46801 4.13228Z" fill="#1ACB2D"/>
<path d="M20.23 -3.01458e-08L33.1036 -3.31604e-07L32.3171 2.51684C31.4173 5.39598 28.7509 7.35632 25.7344 7.35632L20.4327 7.35632C19.1919 7.35632 18.3072 6.15293 18.6773 4.96869L20.23 -3.01458e-08Z" fill="#1ACB2D"/>
<path d="M16.0033 12.4221C16.6031 10.5027 18.3807 9.1958 20.3917 9.1958L29.8851 9.1958L29.0985 11.7126C28.1988 14.5918 25.5324 16.5521 22.5159 16.5521L14.7126 16.5521L16.0033 12.4221Z" fill="#1ACB2D"/>
<path d="M4.36783 9.1958L12.5515 9.1958C13.8265 9.1958 14.7146 10.4615 14.281 11.6604L12.9104 15.4496C11.9225 18.1808 9.32941 20.0004 6.42505 20.0004L2.36142e-07 20.0004L4.36783 9.1958Z" fill="#1ACB2D"/>
</svg>
