<svg width="123" height="18" viewBox="0 0 123 18" fill="none" xmlns="http://www.w3.org/2000/svg">
<path d="M115.606 17.376C114.262 17.376 112.974 17.2 111.742 16.848C110.51 16.48 109.518 16.008 108.766 15.432L110.086 12.504C110.806 13.016 111.654 13.44 112.63 13.776C113.622 14.096 114.622 14.256 115.63 14.256C116.398 14.256 117.014 14.184 117.478 14.04C117.958 13.88 118.31 13.664 118.534 13.392C118.758 13.12 118.87 12.808 118.87 12.456C118.87 12.008 118.694 11.656 118.342 11.4C117.99 11.128 117.526 10.912 116.95 10.752C116.374 10.576 115.734 10.416 115.03 10.272C114.342 10.112 113.646 9.92 112.942 9.696C112.254 9.472 111.622 9.184 111.046 8.832C110.47 8.48 109.998 8.016 109.63 7.44C109.278 6.864 109.102 6.128 109.102 5.232C109.102 4.272 109.358 3.4 109.87 2.616C110.398 1.816 111.182 1.184 112.222 0.719999C113.278 0.24 114.598 0 116.182 0C117.238 0 118.278 0.128 119.302 0.383999C120.326 0.623999 121.23 0.992 122.014 1.488L120.814 4.44C120.03 3.992 119.246 3.664 118.462 3.456C117.678 3.232 116.91 3.12 116.158 3.12C115.406 3.12 114.79 3.208 114.31 3.384C113.83 3.56 113.486 3.792 113.278 4.08C113.07 4.352 112.966 4.672 112.966 5.04C112.966 5.472 113.142 5.824 113.494 6.096C113.846 6.352 114.31 6.56 114.886 6.72C115.462 6.88 116.094 7.04 116.782 7.2C117.486 7.36 118.182 7.544 118.87 7.752C119.574 7.96 120.214 8.24 120.79 8.592C121.366 8.944 121.83 9.408 122.182 9.984C122.55 10.56 122.734 11.288 122.734 12.168C122.734 13.112 122.47 13.976 121.942 14.76C121.414 15.544 120.622 16.176 119.566 16.656C118.526 17.136 117.206 17.376 115.606 17.376Z" fill="#1D2129"/>
<path d="M98.6358 17.3761C96.2518 17.3761 94.3878 16.7121 93.0438 15.3841C91.6998 14.0561 91.0278 12.1601 91.0278 9.69609V0.288086H94.9158V9.55209C94.9158 11.1521 95.2438 12.3041 95.8998 13.0081C96.5558 13.7121 97.4758 14.0641 98.6598 14.0641C99.8438 14.0641 100.764 13.7121 101.42 13.0081C102.076 12.3041 102.404 11.1521 102.404 9.55209V0.288086H106.244V9.69609C106.244 12.1601 105.572 14.0561 104.228 15.3841C102.884 16.7121 101.02 17.3761 98.6358 17.3761Z" fill="#1D2129"/>
<path d="M72.353 17.0881L79.577 7.12809V9.96009L72.665 0.288086H75.5295C76.5026 0.288086 77.4153 0.760111 77.9777 1.55428L81.857 7.03209L80.009 7.05609L83.8179 1.57592C84.3787 0.769159 85.2989 0.288086 86.2814 0.288086H88.937L82.073 9.79209V7.00809L89.345 17.0881H86.4272C85.4437 17.0881 84.5227 16.606 83.9621 15.7979L79.913 9.96009H81.689L77.7105 15.7809C77.1514 16.5989 76.2245 17.0881 75.2337 17.0881H72.353Z" fill="#1D2129"/>
<path d="M61.9119 7.05609H69.9999C69.9999 8.71294 68.6568 10.0801 66.9999 10.0801H61.9119V7.05609ZM62.1999 13.9681H71.3439V14.0881C71.3439 15.7449 70.0008 17.0881 68.3439 17.0881H58.3359V0.288086H71.0319V0.408087C71.0319 2.06494 69.6888 3.40809 68.0319 3.40809H62.1999V13.9681Z" fill="#1D2129"/>
<path d="M38.9531 17.0881V0.288086H40.7489C41.6479 0.288086 42.4995 0.691257 43.0693 1.38662L52.0811 12.3841H50.5211V0.288086H54.3611V17.0881H52.5872C51.6894 17.0881 50.8389 16.686 50.269 15.9923L41.2331 4.99209H42.7931V17.0881H38.9531Z" fill="#1D2129"/>
<path d="M13.103 17.0881L20.327 7.12809V9.96009L13.415 0.288086H16.2795C17.2526 0.288086 18.1653 0.760111 18.7277 1.55428L22.607 7.03209L20.759 7.05609L24.5679 1.57592C25.1287 0.769159 26.0489 0.288086 27.0314 0.288086H29.687L22.823 9.79209V7.00809L30.095 17.0881H27.1772C26.1937 17.0881 25.2727 16.606 24.7121 15.7979L20.663 9.96009H22.439L18.4605 15.7809C17.9014 16.5989 16.9745 17.0881 15.9837 17.0881H13.103Z" fill="#1D2129"/>
<path d="M3.6 7.84809H11.664V7.96809C11.664 9.62494 10.3209 10.9681 8.664 10.9681H3.6V7.84809ZM3.888 17.0881H0V0.288086H12.696V0.408087C12.696 2.06494 11.3529 3.40809 9.696 3.40809H3.888V17.0881Z" fill="#1D2129"/>
</svg>
