<svg xmlns="http://www.w3.org/2000/svg" width="16" height="16" viewBox="0 0 16 16" fill="none">
  <path d="M10.0667 1.89991H5.93336V1.4999C5.93336 1.16853 5.66473 0.899902 5.33336 0.899902C5.00199 0.899902 4.73336 1.16853 4.73336 1.4999V1.89991H4.66669C2.86256 1.89991 1.40002 3.36245 1.40002 5.16658V11.8332C1.40002 13.6374 2.86256 15.0999 4.66669 15.0999H11.3334C13.1375 15.0999 14.6 13.6374 14.6 11.8332V5.16658C14.6 3.36245 13.1375 1.89991 11.3334 1.89991H11.2667V1.4999C11.2667 1.16853 10.9981 0.899902 10.6667 0.899902C10.3353 0.899902 10.0667 1.16853 10.0667 1.4999V1.89991ZM5.33336 4.0999C5.66473 4.0999 5.93336 3.83127 5.93336 3.4999V3.09991H10.0667V3.4999C10.0667 3.83127 10.3353 4.0999 10.6667 4.0999C10.9981 4.0999 11.2667 3.83127 11.2667 3.4999V3.09991H11.3334C12.4747 3.09991 13.4 4.02519 13.4 5.16658V5.89991L2.60002 5.89991V5.16658C2.60002 4.02519 3.5253 3.09991 4.66669 3.09991H4.73336V3.4999C4.73336 3.83127 5.00199 4.0999 5.33336 4.0999ZM2.60002 7.09991L13.4 7.09991V11.8332C13.4 12.9746 12.4747 13.8999 11.3334 13.8999H4.66669C3.5253 13.8999 2.60002 12.9746 2.60002 11.8332V7.09991Z" fill="currentColor"/>
</svg>