<svg width="32" height="32" viewBox="0 0 32 32" fill="none" xmlns="http://www.w3.org/2000/svg">
<circle cx="16" cy="16" r="16" fill="#1D2129"/>
<path d="M5.50098 28.0739C6.44218 26.5715 7.99376 25.1705 9.60126 24.8321C12.9293 24.1315 13.5693 22.1441 12.0333 20.7361C9.33464 18.2624 9.21726 15.4028 9.21726 13.4401V11.9035C9.21726 8.15715 12.2543 5.12012 16.0007 5.12012C19.747 5.12012 22.7841 8.15715 22.7841 11.9035V13.4401C22.7841 15.4028 22.6667 18.2624 19.9681 20.7361C18.4321 22.1441 19.0721 24.1315 22.4001 24.8321C24.0073 25.1705 25.5587 26.5711 26.4999 28.0732C23.69 30.5191 20.018 32.0001 16.0001 32.0001C11.9825 32.0001 8.31085 30.5194 5.50098 28.0739Z" fill="white"/>
<path d="M13.6001 17.0667C13.6001 16.4776 14.0777 16 14.6668 16H17.3334C17.9225 16 18.4001 16.4776 18.4001 17.0667C18.4001 18.2449 17.445 19.2 16.2668 19.2H15.7334C14.5552 19.2 13.6001 18.2449 13.6001 17.0667Z" fill="#C9CDD4"/>
</svg>
