<svg width="20" height="20" viewBox="0 0 20 20" fill="none" xmlns="http://www.w3.org/2000/svg">
<path fill-rule="evenodd" clip-rule="evenodd" d="M19.083 5.00033C19.083 2.74516 17.2548 0.916992 14.9997 0.916992H4.99967C2.74451 0.916992 0.91634 2.74516 0.91634 5.00033V15.0003C0.91634 17.2555 2.74451 19.0837 4.99967 19.0837H14.9997C17.2548 19.0837 19.083 17.2555 19.083 15.0003V5.00033ZM14.9997 2.41699C16.4264 2.41699 17.583 3.57359 17.583 5.00033V15.0003C17.583 16.4271 16.4264 17.5837 14.9997 17.5837H4.99967C3.57294 17.5837 2.41634 16.4271 2.41634 15.0003V5.00033C2.41634 3.57359 3.57294 2.41699 4.99967 2.41699H14.9997Z" fill="currentColor"/>
<path fill-rule="evenodd" clip-rule="evenodd" d="M6.21634 6.06699C5.88497 6.31552 5.81781 6.78562 6.06634 7.11699L7.81634 9.45033C8.06079 9.77625 8.06079 10.2244 7.81634 10.5503L6.06634 12.8837C5.81781 13.215 5.88497 13.6851 6.21634 13.9337C6.54771 14.1822 7.01781 14.115 7.26634 13.7837L9.01634 11.4503C9.66079 10.5911 9.66079 9.40958 9.01634 8.55033L7.26634 6.21699C7.01781 5.88562 6.54771 5.81846 6.21634 6.06699Z" fill="currentColor"/>
<path fill-rule="evenodd" clip-rule="evenodd" d="M10.383 6.06699C10.0516 6.31552 9.98448 6.78562 10.233 7.11699L11.983 9.45033C12.2275 9.77625 12.2275 10.2244 11.983 10.5503L10.233 12.8837C9.98448 13.215 10.0516 13.6851 10.383 13.9337C10.7144 14.1822 11.1845 14.115 11.433 13.7837L13.183 11.4503C13.8275 10.5911 13.8275 9.40958 13.183 8.55033L11.433 6.21699C11.1845 5.88562 10.7144 5.81846 10.383 6.06699Z" fill="currentColor"/>
</svg>
