<svg xmlns="http://www.w3.org/2000/svg" width="56" height="56" viewBox="0 0 56 56" fill="none">
  <path d="M51.3327 28C51.3327 40.8867 40.886 51.3333 27.9994 51.3333C15.1127 51.3333 4.66602 40.8867 4.66602 28C4.66602 15.1134 15.1127 4.66667 27.9994 4.66667C40.886 4.66667 51.3327 15.1134 51.3327 28ZM36.0846 19.915C35.2645 19.0949 33.9349 19.0949 33.1148 19.915L27.9996 25.0302L22.8848 19.9155C22.0647 19.0954 20.7351 19.0954 19.915 19.9155C19.0949 20.7356 19.0949 22.0652 19.915 22.8853L25.0297 28.0001L19.9155 33.1143C19.0954 33.9344 19.0954 35.264 19.9155 36.0841C20.7356 36.9043 22.0652 36.9043 22.8853 36.0841L27.9996 30.9699L33.1143 36.0846C33.9344 36.9048 35.264 36.9048 36.0841 36.0846C36.9042 35.2645 36.9042 33.9349 36.0841 33.1148L30.9694 28.0001L36.0846 22.8848C36.9047 22.0647 36.9047 20.7351 36.0846 19.915Z" fill="currentColor"/>
</svg>