<svg width="16" height="16" viewBox="0 0 16 16" fill="none" xmlns="http://www.w3.org/2000/svg">
<path d="M9.05404 11.2044V8.69794C9.05404 8.16267 9.31147 7.6597 9.74544 7.34637L12.1035 5.6439L12.1621 5.59052C12.2132 5.53079 12.2422 5.45403 12.2422 5.37372V3.33791C12.2422 3.15386 12.0929 3.00464 11.9089 3.00458H4.09115C3.90705 3.00458 3.75781 3.15382 3.75781 3.33791V5.38218C3.75784 5.488 3.80807 5.58759 3.89323 5.65041L5.93034 7.15236L6.03906 7.23765C6.56922 7.67932 6.87885 8.33521 6.87891 9.02997V12.6595C6.87906 12.9535 7.23173 13.1032 7.44336 12.8991L8.95247 11.444L8.99609 11.3926C9.03374 11.3376 9.05399 11.2721 9.05404 11.2044ZM13.2422 5.37372L13.2324 5.53257C13.1883 5.89995 12.9927 6.23509 12.6888 6.45445L10.3307 8.15692C10.1571 8.28225 10.054 8.48381 10.054 8.69794V11.2044L10.0475 11.3392C10.0158 11.6514 9.87445 11.9442 9.64648 12.1641L8.13802 13.6192L8.05664 13.6914C7.23148 14.3747 5.96353 13.836 5.88281 12.7676L5.87891 12.6595V9.02997C5.87886 8.65942 5.72456 8.30833 5.45768 8.05796L5.33659 7.95705L3.30013 6.4551C3.00191 6.23523 2.81015 5.90306 2.76693 5.53973L2.75781 5.38218V3.33791C2.75781 2.64748 3.28263 2.07991 3.95508 2.01174L4.09115 2.00458H11.9089C12.6452 2.00464 13.2422 2.60157 13.2422 3.33791V5.37372Z" fill="currentColor"/>
</svg>
