<svg width="24" height="24" viewBox="0 0 24 24" fill="none" xmlns="http://www.w3.org/2000/svg">
<path d="M9.66658 20.6663H14.3332C14.3332 21.9549 13.2886 22.9996 11.9999 22.9996C10.7112 22.9996 9.66658 21.9549 9.66658 20.6663Z" fill="currentColor"/>
<path fill-rule="evenodd" clip-rule="evenodd" d="M12.0001 1.09961C7.63705 1.09961 4.1001 4.63656 4.1001 8.99961V17.5996H2.6666C2.16955 17.5996 1.7666 18.0026 1.7666 18.4996C1.7666 18.9967 2.16955 19.3996 2.6666 19.3996H21.3333C21.8303 19.3996 22.2333 18.9967 22.2333 18.4996C22.2333 18.0026 21.8303 17.5996 21.3333 17.5996H19.9001V8.99961C19.9001 4.63656 16.3631 1.09961 12.0001 1.09961ZM18.1001 17.5996V8.99961C18.1001 5.63067 15.369 2.89961 12.0001 2.89961C8.63116 2.89961 5.9001 5.63067 5.9001 8.99961V17.5996H18.1001Z" fill="currentColor"/>
</svg>
