<svg width="24" height="24" viewBox="0 0 24 24" fill="none" xmlns="http://www.w3.org/2000/svg">
<path d="M5.60316 10.3287L7.1615 19.8323C7.44243 21.5455 5.51292 22.744 4.10159 21.733L1.86398 20.13C1.10377 19.5854 0.652832 18.7077 0.652832 17.7725V15.6704C0.652832 14.7008 1.13742 13.7953 1.9442 13.2574L4.03121 11.8661L3.80283 10.4733V10.4C3.80283 5.6132 7.439 1.625 12.0528 1.625C16.6667 1.625 20.3028 5.6132 20.3028 10.4V10.4733L20.0744 11.8661L22.1615 13.2574C22.9683 13.7954 23.4528 14.7012 23.4528 15.6706V17.7723C23.4528 18.7073 23.002 19.5854 22.2417 20.13L20.0041 21.733C18.5927 22.744 16.6632 21.5455 16.9442 19.8323L18.5025 10.3287C18.467 6.45116 15.5363 3.425 12.0528 3.425C8.5694 3.425 5.63869 6.45116 5.60316 10.3287ZM19.7547 13.8162L18.7204 20.1235C18.713 20.1689 18.721 20.1945 18.7291 20.2113C18.7393 20.2325 18.7591 20.2564 18.7893 20.2752C18.8195 20.294 18.8498 20.3011 18.8733 20.3009C18.8919 20.3007 18.9184 20.2965 18.9558 20.2697L21.1934 18.6668C21.4817 18.4603 21.6528 18.1271 21.6528 17.7723V15.6706C21.6528 15.3027 21.4689 14.9591 21.163 14.7551L19.7547 13.8162ZM4.35099 13.8162L2.94266 14.7551C2.63664 14.9591 2.45283 15.3026 2.45283 15.6704V17.7725C2.45283 18.1273 2.62388 18.4602 2.91223 18.6668L5.14984 20.2697C5.18726 20.2965 5.21375 20.3007 5.23234 20.3009C5.2559 20.3011 5.28613 20.294 5.31635 20.2752C5.34656 20.2564 5.36632 20.2325 5.37659 20.2113C5.38469 20.1945 5.39267 20.1689 5.38522 20.1235L4.35099 13.8162Z" fill="currentColor"/>
</svg>
