<svg width="20" height="20" viewBox="0 0 20 20" fill="none" xmlns="http://www.w3.org/2000/svg">
<path d="M2.61863 1.80356C3.34058 1.1367 4.32362 0.916992 5.49211 0.916992H8.03378L8.04628 0.917096L8.05886 0.916992H11.9174H11.9505H14.4591C15.6276 0.916992 16.6106 1.1367 17.3325 1.80356C18.0446 2.46129 18.361 3.42574 18.5186 4.56413C18.5199 4.57307 18.521 4.58204 18.5219 4.59102L18.7554 6.8844C18.8381 7.71609 18.6443 8.49151 18.2491 9.1263C18.2498 9.13965 18.2502 9.1531 18.2502 9.16664V12.9846C18.2502 14.965 17.8656 16.5466 16.8164 17.616C15.7638 18.6889 14.203 19.0833 12.2526 19.0833H12.1067C12.099 19.0835 12.0912 19.0837 12.0834 19.0837H7.91675C7.90894 19.0837 7.90116 19.0835 7.89342 19.0833H7.75585C5.80545 19.0833 4.24467 18.6889 3.19201 17.616C2.14373 16.5475 1.75896 14.9678 1.7583 12.9897L1.75008 12.382L1.75015 9.40576C1.75015 9.34259 1.75796 9.28124 1.77267 9.22263C1.33591 8.57085 1.11723 7.75897 1.20408 6.88492L1.42903 4.59371C1.43 4.58383 1.43117 4.57396 1.43253 4.56413C1.59015 3.42574 1.90657 2.46129 2.61863 1.80356ZM11.3334 17.5833V16.2503C11.3334 15.669 11.1893 15.3732 11.0333 15.2171C10.8772 15.0611 10.5814 14.917 10.0001 14.917C9.41872 14.917 9.12292 15.0611 8.96687 15.2171C8.81082 15.3732 8.66675 15.669 8.66675 16.2503V17.5833H11.3334ZM12.8334 17.5692C14.2827 17.496 15.1827 17.1393 15.7457 16.5655C16.3838 15.9151 16.7501 14.8223 16.7501 12.9846V10.436C16.3018 10.638 15.7981 10.7503 15.2591 10.7503C14.2221 10.7503 13.253 10.2614 12.595 9.50011C12.0071 10.2632 11.0788 10.7503 10.0005 10.7503C8.90974 10.7503 7.97232 10.2519 7.38567 9.47346C6.72863 10.2504 5.74849 10.7503 4.70044 10.7503C4.17772 10.7503 3.68817 10.6447 3.25015 10.454V12.3769L3.25837 12.9846C3.25837 14.8223 3.62461 15.9151 4.26274 16.5655C4.82463 17.1382 5.72228 17.4946 7.16675 17.5688V16.2503C7.16675 15.44 7.36851 14.6942 7.90621 14.1565C8.44391 13.6188 9.18978 13.417 10.0001 13.417C10.8104 13.417 11.5563 13.6188 12.094 14.1565C12.6317 14.6942 12.8334 15.44 12.8334 16.2503V17.5692ZM2.92037 4.75539L2.69676 7.03292C2.57386 8.26803 3.46219 9.25033 4.70044 9.25033C5.69206 9.25033 6.60815 8.42413 6.70395 7.43627L6.70413 7.43437L7.20504 2.41699H5.49211C4.47727 2.41699 3.95197 2.61395 3.63642 2.90542C3.31252 3.20461 3.06309 3.73655 2.92037 4.75539ZM11.2386 2.41699H8.7374L8.24693 7.30708C8.14054 8.39236 8.92071 9.25033 10.0005 9.25033C10.9704 9.25033 11.6986 8.55876 11.7598 7.63158C11.758 7.61625 11.7563 7.6009 11.7547 7.58552L11.7544 7.58318L11.2386 2.41699ZM13.2636 7.55423C13.4253 8.49126 14.3094 9.25033 15.2591 9.25033C16.497 9.25033 17.3852 8.26848 17.2628 7.03377L17.2628 7.03292L17.031 4.7567C16.8883 3.737 16.6388 3.20474 16.3148 2.90542C15.9992 2.61395 15.4739 2.41699 14.4591 2.41699H12.7783L13.2469 7.15992C13.26 7.29304 13.2655 7.42462 13.2636 7.55423Z" fill="currentColor"/>
</svg>
