<svg xmlns="http://www.w3.org/2000/svg" width="56" height="56" viewBox="0 0 56 56" fill="none">
  <path d="M44.4985 44.4991C40.276 48.7216 34.4426 51.3333 27.9994 51.3333C21.5561 51.3333 15.7227 48.7216 11.5002 44.4991C7.27769 40.2766 4.66602 34.4433 4.66602 28C4.66602 21.5567 7.27769 15.7234 11.5002 11.5008C15.7227 7.27833 21.5561 4.66666 27.9994 4.66666C34.4426 4.66666 40.276 7.27833 44.4985 11.5008C48.721 15.7234 51.3327 21.5567 51.3327 28C51.3327 34.4433 48.721 40.2766 44.4985 44.4991ZM37.8391 22.3653C38.5791 21.4723 38.455 20.1484 37.5619 19.4084C36.6688 18.6685 35.345 18.7926 34.605 19.6857L24.7986 31.521L20.207 26.9295C19.3869 26.1094 18.0572 26.1094 17.2371 26.9295C16.417 27.7496 16.417 29.0792 17.2371 29.8993L23.4594 36.1215C23.8773 36.5395 24.452 36.7619 25.0424 36.7343C25.6328 36.7067 26.1842 36.4316 26.5613 35.9764L37.8391 22.3653Z" fill="currentColor"/>
</svg>